# xmcd
#
# Track frame offsets:
#	150
#	5207
#	26692
#	42783
#	61807
#	83051
#	99113
#	118780
#	140661
#	159023
#	176921
#	197399
#	219664
#	235373
#	270108
#	293115
#	298182
#
# Disc length: 4322 seconds
#
# Revision: 0
# Processed by: cddbd v1.4PL0 Copyright (c) Steve Scherf et al.
# Submitted via: dBpowerAMP V4.0
#
DISCID=eb10e011
DTITLE=Eminem - Maximum presure
DYEAR=1900
DGENRE=
TTITLE0=Intro
TTITLE1=Low, down and dirty
TTITLE2=4 verses
TTITLE3=Sweet MC
TTITLE4=Murder murder
TTITLE5=My motherfucking name is
TTITLE6=Rhymes u never heard
TTITLE7=Still a G thang
TTITLE8=Rhymin' words freestyle
TTITLE9=It's murda
TTITLE10=Rush ya clique
TTITLE11=The kids
TTITLE12=Still #1
TTITLE13=Just rhymin'
TTITLE14=Don't give a fuck
TTITLE15=Wake up slow freestyle
TTITLE16=Still
EXTD=
EXTT0=
EXTT1=
EXTT2=
EXTT3=
EXTT4=
EXTT5=
EXTT6=
EXTT7=
EXTT8=
EXTT9=
EXTT10=
EXTT11=
EXTT12=
EXTT13=
EXTT14=
EXTT15=
EXTT16=
PLAYORDER=
